<svg t="1626677718020" class="icon" viewBox="0 0 1024 1024" version="1.1" xmlns="http://www.w3.org/2000/svg" p-id="8427" width="200" height="200"><path d="M270.848 409.088h423.936c61.952 0 112.64 50.688 112.64 112.64v69.632h-289.792V747.52h289.792v60.416c0 61.952-50.688 112.64-112.64 112.64H160.256l0.512-549.888c0-2.048-0.512-3.584-0.512-5.632-1.536-21.504 2.048-43.008 9.728-62.464 9.728-24.576 26.112-47.104 47.616-62.464l9.216-6.656h181.76l124.928-130.56 23.552-24.576 25.6 22.528 151.04 132.608h38.4v33.792l100.864 89.088 26.624 23.552-72.192 82.432-53.248-46.592 25.6-29.184-238.08-209.408-196.608 206.336H264.704l75.776-78.848H251.392c-6.656 6.656-11.776 14.848-15.36 24.064-4.096 9.728-5.632 20.992-4.608 31.232 1.024 9.728 4.096 18.944 9.728 27.136 6.144 8.704 15.872 16.384 29.696 22.016z m355.328 216.064c-27.648 0-49.664 22.528-49.664 49.664 0 27.648 22.528 49.664 49.664 49.664s49.664-22.528 49.664-49.664c0-27.136-22.016-49.664-49.664-49.664z" fill="#23B471" p-id="8428"></path></svg>