<svg t="1626678298134" class="icon" viewBox="0 0 1024 1024" version="1.1" xmlns="http://www.w3.org/2000/svg" p-id="14328" width="200" height="200"><path d="M512 1024a512 512 0 1 1 512-512 512 512 0 0 1-512 512z m0-938.666667a426.666667 426.666667 0 1 0 426.666667 426.666667A426.666667 426.666667 0 0 0 512 85.333333z" fill="#05BC3D" p-id="14329"></path><path d="M298.666667 512a42.666667 42.666667 0 0 1-42.666667-42.666667v-85.333333a42.666667 42.666667 0 0 1 85.333333 0v85.333333a42.666667 42.666667 0 0 1-42.666666 42.666667zM725.333333 512a42.666667 42.666667 0 0 1-42.666666-42.666667v-85.333333a42.666667 42.666667 0 0 1 85.333333 0v85.333333a42.666667 42.666667 0 0 1-42.666667 42.666667zM512 810.666667a248.106667 248.106667 0 0 1-206.08-104.32 42.666667 42.666667 0 1 1 70.826667-47.36A162.56 162.56 0 0 0 512 725.333333a162.56 162.56 0 0 0 135.253333-66.346666 42.666667 42.666667 0 0 1 70.826667 47.36A248.106667 248.106667 0 0 1 512 810.666667z" fill="#05BC3D" p-id="14330"></path></svg>