<svg t="1626677820399" class="icon" viewBox="0 0 1024 1024" version="1.1" xmlns="http://www.w3.org/2000/svg" p-id="9477" width="200" height="200"><path d="M512 320c173.504 0 320 143.264 320 320v32c0 17.664-15.424 32-34.688 32-15.424 0-30.848-14.336-30.848-32v-32c0-141.376-115.68-256-254.464-256-142.656 0-258.304 114.624-258.304 256v32c0 17.664-15.424 32-30.848 32C203.52 704 192 689.664 192 672v-32c0-176.736 142.656-320 320-320z m111.808 166.4c14.304 9.856 18.656 27.84 9.952 41.696l-63.936 86.72c3.84 7.744 3.84 16.224 3.84 25.184 0 35.36-26.976 64-61.664 64-38.56 0-65.536-28.64-65.536-64 0-33.76 24.576-61.376 60.352-63.84l5.6-0.128 7.296 0.416 61.696-83.648c11.552-14.144 30.848-16.992 42.4-6.4z" fill="#23B471" p-id="9478"></path></svg>