<svg t="1626678383457" class="icon" viewBox="0 0 1024 1024" version="1.1" xmlns="http://www.w3.org/2000/svg" p-id="15990" width="200" height="200"><path d="M999.314286 1004.342857H24c-13.257143 0-24-10.742857-24-24V763.428571c0-13.257143 10.742857-24 24-24h94.857143v45.714286H45.714286v173.485714h931.885714V785.142857h-72.228571v-45.714286h93.942857c13.257143 0 24 10.742857 24 24v216.914286c0 13.257143-10.857143 24-24 24zM425.828571 274.4h306.971429v45.714286H425.828571zM425.828571 457.714286h176.228572v45.714285H425.828571zM425.828571 568.914286h176.228572v45.714285H425.828571z" p-id="15991" fill="#4B6BC6"></path><path d="M882.971429 274.285714v-102.628571c0-82.971429-67.542857-150.514286-150.514286-150.514286H299.657143c-13.257143 0-24 10.742857-24 24V849.142857c0 13.257143 10.742857 24 24 24h559.2c13.257143 0 24-10.742857 24-24V346.057143h-45.714286V827.428571H321.371429V66.857143h369.714285v128.114286c0 13.028571 10.628571 23.657143 23.657143 23.657142h122.514286V274.285714h45.714286z m-146.171429-101.371428V66.971429c55.771429 2.285714 100.457143 48.342857 100.457143 104.685714v1.257143h-100.457143zM270.514286 810.057143h-106.171429c-13.257143 0-24-10.742857-24-24V141.714286c0-13.257143 10.742857-24 24-24h105.6v45.714285h-83.885714v600.914286h84.457143v45.714286z" p-id="15992" fill="#4B6BC6"></path></svg>