<svg t="1626678233623" class="icon" viewBox="0 0 1024 1024" version="1.1" xmlns="http://www.w3.org/2000/svg" p-id="13378" width="200" height="200"><path d="M512 1024a512 512 0 1 1 512-512 512 512 0 0 1-512 512z m0-938.666667a426.666667 426.666667 0 1 0 426.666667 426.666667A426.666667 426.666667 0 0 0 512 85.333333z" fill="#DEA90A" p-id="13379"></path><path d="M298.666667 512a42.666667 42.666667 0 0 1-42.666667-42.666667v-85.333333a42.666667 42.666667 0 0 1 85.333333 0v85.333333a42.666667 42.666667 0 0 1-42.666666 42.666667zM725.333333 512a42.666667 42.666667 0 0 1-42.666666-42.666667v-85.333333a42.666667 42.666667 0 0 1 85.333333 0v85.333333a42.666667 42.666667 0 0 1-42.666667 42.666667zM682.666667 768a42.666667 42.666667 0 0 1-35.413334-18.986667A162.56 162.56 0 0 0 512 682.666667a162.56 162.56 0 0 0-135.253333 66.346666 42.666667 42.666667 0 0 1-70.826667-47.36A248.106667 248.106667 0 0 1 512 597.333333a248.106667 248.106667 0 0 1 206.08 104.32A42.666667 42.666667 0 0 1 682.666667 768z" fill="#DEA90A" p-id="13380"></path></svg>