<svg t="1626677750142" class="icon" viewBox="0 0 1024 1024" version="1.1" xmlns="http://www.w3.org/2000/svg" p-id="8865" width="200" height="200"><path d="M688.2 479h-0.1c-115.9 0.1-209.8 94.2-209.7 210.1 0 115.4 94.5 210.1 209.8 210.1h0.1c115.3 0 209.7-94.7 209.7-210.1S803.5 479 688.2 479z m122.3 163.2L660.7 792c-6.6 6.6-15.6 10.4-25 10.4-19.4 0-32.5-18.6-45.3-31.1-14.2-13.8-28.1-27.8-42.1-41.7-13.5-13.8-13.4-36 0.3-49.7 13.7-13.7 35.8-13.8 49.7-0.3l37.4 37.4 124.9-124.9h0.1c8.9-9 22-12.5 34.2-9.3 12.2 3.3 21.8 12.8 25 25 3.1 12.5-0.4 25.5-9.4 34.4z" p-id="8866" fill="#23B471"></path><path d="M925.2 547.8C873.4 460.9 784.1 409 684.4 409h-2.6C529 409 404.7 532.2 407.3 685.3c-1.3 35 6.5 74 20.7 99.9H135.4c-22 0-38.8-13-38.8-35V169.1c0-19.5 16.8-45.4 38.8-46.7h268c21.9 0 33.1 23.6 40 40.9 7.6 19.3 14.2 39 23.4 57.7l10.4 20.8c5 15 19.2 25 35 24.7H889c20.7 0 36.3 18.1 36.3 40.2l-0.1 241.1z" p-id="8867" fill="#23B471"></path><path d="M926.5 193.6c0 20.8-18.1 33.7-40.2 33.7H522.5c-28 0-53.6-42.1-50-68 2.4-17.6 21.8-35.8 39.7-35.8h375.5c2.6 0 5.2 2.6 9.1 3.9 18.1 2.6 29.7 22 29.7 40.2v26z" p-id="8868" fill="#23B471"></path></svg>