<svg t="1626678424822" class="icon" viewBox="0 0 1024 1024" version="1.1" xmlns="http://www.w3.org/2000/svg" p-id="16625" width="200" height="200"><path d="M520.106667 553.813333a42.24 42.24 0 0 1-42.666667-42.666666V110.933333c0-23.466667 19.2-42.666667 42.666667-42.666666 244.053333 0 442.88 198.826667 442.88 442.88 0 23.466667-19.2 42.666667-42.666667 42.666666h-400.213333z m42.666666-398.08v312.746667l312.32-0.426667a358.784 358.784 0 0 0-312.32-312.32z" p-id="16626" fill="#4B6BC6"></path><path d="M844.8 657.92c-57.6 126.293333-184.746667 210.346667-324.693333 210.346667-197.12 0-357.546667-160.426667-357.546667-357.546667 0-144.64 87.466667-273.066667 218.88-328.533333V91.306667c-1.706667 0.426667-3.84 0-5.546667 0.853333-178.773333 61.44-298.666667 229.973333-298.666666 418.986667 0 244.053333 198.826667 442.88 442.88 442.88 181.76 0 347.733333-113.92 413.44-283.733334 1.706667-3.84 1.706667-8.106667 2.133333-11.946666H844.8z" p-id="16627" fill="#4B6BC6"></path></svg>