<svg t="1626418913404" class="icon" viewBox="0 0 1024 1024" version="1.1" xmlns="http://www.w3.org/2000/svg" p-id="2784" width="200" height="200"><path d="M686.63 362.28c0-96.66-78.64-175.29-175.29-175.29s-175.29 78.64-175.29 175.29c0 65.26 35.86 122.31 88.9 152.48-48.25 14.19-92.46 40.29-129.02 76.85-57.54 57.54-89.23 134.04-89.23 215.41 0 16.57 13.43 30 30 30s30-13.43 30-30c0-134.89 109.74-244.64 244.64-244.64s244.64 109.74 244.64 244.64c0 16.57 13.43 30 30 30s30-13.43 30-30c0-81.37-31.69-157.87-89.23-215.41-36.55-36.56-80.77-62.66-129.02-76.85 53.04-30.18 88.9-87.22 88.9-152.48z m-175.3 115.29c-63.57 0-115.29-51.72-115.29-115.29 0-63.57 51.72-115.29 115.29-115.29s115.29 51.72 115.29 115.29c0.01 63.57-51.71 115.29-115.29 115.29z" p-id="2785" fill="#05bc3d"></path><path d="M792.52 493.88c32.14-28.69 52.42-70.41 52.42-116.78 0-86.31-70.22-156.53-156.53-156.53-16.57 0-30 13.43-30 30s13.43 30 30 30c53.22 0 96.53 43.3 96.53 96.53 0 50.29-38.66 91.71-87.82 96.13-2.89-0.09-5.79-0.15-8.7-0.15-16.57 0-30 13.43-30 30 0 0.09 0.01 0.18 0.01 0.28 0 0.09-0.01 0.18-0.01 0.28 0 16.57 13.43 30 30 30 3.29 0 6.55-0.11 9.78-0.31 110.81 5.13 199.38 96.88 199.38 208.93 0 16.57 13.43 30 30 30s30-13.43 30-30c0-71.9-28-139.49-78.84-190.33-25.14-25.16-54.39-44.7-86.22-58.05zM95.09 772.24c16.57 0 30-13.43 30-30 0-112.05 88.57-203.8 199.38-208.93 3.24 0.2 6.5 0.31 9.78 0.31 16.57 0 30-13.43 30-30 0-0.09-0.01-0.18-0.01-0.28 0-0.09 0.01-0.18 0.01-0.28 0-16.57-13.43-30-30-30-2.91 0-5.81 0.06-8.7 0.15-49.16-4.41-87.82-45.84-87.82-96.13 0-53.22 43.3-96.53 96.53-96.53 16.57 0 30-13.43 30-30s-13.43-30-30-30c-86.31 0-156.53 70.22-156.53 156.53 0 46.37 20.28 88.09 52.42 116.78-31.83 13.35-61.08 32.89-86.22 58.03-50.84 50.84-78.84 118.43-78.84 190.33 0 16.59 13.43 30.02 30 30.02z" p-id="2786" fill="#05bc3d"></path></svg>