<svg t="1626418981494" class="icon" viewBox="0 0 1024 1024" version="1.1" xmlns="http://www.w3.org/2000/svg" p-id="3879" width="200" height="200"><path d="M73.12695312 924.36347656c0 16.28173828 13.17304687 29.45478516 29.45478516 29.45478516H485.4921875a29.45478516 29.45478516 0 0 0 29.45390625-29.45478516V99.63652344A29.45478516 29.45478516 0 0 0 485.4921875 70.18173828H102.58173828A29.45478516 29.45478516 0 0 0 73.12695312 99.63652344v824.72695312zM338.21826172 232.18261719a29.45478516 29.45478516 0 0 1 29.45478516-29.45478516H397.12695312a29.45478516 29.45478516 0 0 1 29.45478516 29.45478516v29.45478515a29.45478516 29.45478516 0 0 1-29.45478515 29.45478516h-29.45390625a29.45478516 29.45478516 0 0 1-29.45478516-29.45478516v-29.45478515z m0 198.81826172a29.45478516 29.45478516 0 0 1 29.45478516-29.45478516H397.12695312a29.45478516 29.45478516 0 0 1 29.45478516 29.45478516v31.9086914a29.45478516 29.45478516 0 0 1-29.45478515 29.45478516h-29.45390625a29.45478516 29.45478516 0 0 1-29.45478516-29.45478516V431z m0 198.81738281a29.45478516 29.45478516 0 0 1 29.45478516-29.45390625H397.12695312a29.45478516 29.45478516 0 0 1 29.45478516 29.45478516v29.45478515a29.45478516 29.45478516 0 0 1-29.45478515 29.45390625h-29.45390625a29.45478516 29.45478516 0 0 1-29.45478516-29.45390625V629.81738281zM161.49130859 232.18261719a29.45478516 29.45478516 0 0 1 29.45390625-29.45566406h29.45478516a29.45478516 29.45478516 0 0 1 29.45478516 29.45478515v29.45478516a29.45478516 29.45478516 0 0 1-29.45478516 29.45478515h-29.45478516a29.45478516 29.45478516 0 0 1-29.45390625-29.45478515v-29.45478516z m0 198.81738281a29.45478516 29.45478516 0 0 1 29.45390625-29.45478516h29.45478516a29.45478516 29.45478516 0 0 1 29.45478516 29.45478516v31.90869141a29.45478516 29.45478516 0 0 1-29.45478516 29.45478515h-29.45478516a29.45478516 29.45478516 0 0 1-29.45390625-29.45478515V431z m0 198.81738281a29.45478516 29.45478516 0 0 1 29.45390625-29.45390625h29.45478516a29.45478516 29.45478516 0 0 1 29.45478516 29.45478516v29.45478516a29.45478516 29.45478516 0 0 1-29.45478516 29.45390625h-29.45478516a29.45478516 29.45478516 0 0 1-29.45390625-29.45390625V629.81738281z m427.09042969-139.9086914a29.45478516 29.45478516 0 0 0-29.45478516 29.45478515v405c0 16.28173828 13.17304687 29.45478516 29.45478516 29.45478516h51.54521484a29.45478516 29.45478516 0 0 0 29.45478516-29.45478516v-155.12695312a29.45478516 29.45478516 0 0 1 29.45478516-29.45478516h117.81738281a29.45478516 29.45478516 0 0 1 29.45478516 29.45478516v155.12695312c0 16.28173828 13.17304687 29.45478516 29.45478515 29.45478516h51.54521485a29.45478516 29.45478516 0 0 0 29.45478515-29.45478516v-405a29.45478516 29.45478516 0 0 0-29.45478515-29.45478515H588.58173828z" p-id="3880" fill="#05bc3d"></path></svg>