<svg t="1628490355364" class="icon" viewBox="0 0 1024 1024" version="1.1" xmlns="http://www.w3.org/2000/svg" p-id="42624" width="200" height="200"><path d="M216.187761 622.518093c-30.899754 0-55.983036 25.059745-55.983036 55.983036 0 30.921243 25.083282 55.980989 55.983036 55.980989 30.921243 0 56.001455-25.059745 56.001455-55.980989C272.189216 647.577838 247.109004 622.518093 216.187761 622.518093z" p-id="42625" fill="#DEA90A"></path><path d="M128.424928 662.214187l25.951045 0c7.214309-27.439956 32.159444-47.734164 61.811788-47.734164 29.649274 0 54.605665 20.293185 61.85579 47.734164l369.383862 0L647.427412 321.747935 128.424928 321.747935 128.424928 662.214187z" p-id="42626" fill="#DEA90A"></path><path d="M874.387517 618.326631l-47.128367-210.318076L668.602687 408.008554l0 254.204609 44.895513 0c7.237845-27.439956 32.1707-47.734164 61.844533-47.734164 29.6636 0 54.594409 20.293185 61.823044 47.734164l37.220716 0 21.187555 0 0-43.887556L874.387517 618.325607zM683.722036 499.930103l0-77.191056 128.623449 1.5104 18.165732 75.680657L683.722036 499.930103z" p-id="42627" fill="#DEA90A"></path><path d="M775.342734 622.518093c-30.921243 0-55.980989 25.059745-55.980989 55.983036 0 30.921243 25.059745 55.980989 55.980989 55.980989 30.92329 0 55.968709-25.059745 55.968709-55.980989C831.311443 647.577838 806.266024 622.518093 775.342734 622.518093z" p-id="42628" fill="#DEA90A"></path></svg>