<svg t="1628489144724" class="icon" viewBox="0 0 1024 1024" version="1.1" xmlns="http://www.w3.org/2000/svg" p-id="5754" width="200" height="200"><path d="M381.44 683.52z" p-id="5755" fill="#F2BA11"></path><path d="M61.44 622.08c-7.68 7.68-10.24 15.36-10.24 25.6s5.12 17.92 10.24 25.6c15.36 15.36 38.4 15.36 51.2 0l10.24-10.24v-104.96l-61.44 64z" fill="#F2BA11" p-id="5756"></path><path d="M660.48 509.44l-25.6-23.04 25.6 23.04z" p-id="5757" fill="#F2BA11"></path><path d="M660.48 509.44l38.4 38.4c5.12 5.12 15.36 7.68 23.04 5.12 7.68-2.56 15.36-10.24 17.92-17.92l40.96-168.96c2.56-7.68 0-17.92-7.68-23.04-5.12-5.12-15.36-7.68-23.04-7.68l-168.96 40.96c-7.68 2.56-15.36 7.68-17.92 17.92-2.56 7.68 0 17.92 5.12 23.04l66.56 66.56 25.6 25.6zM192 491.52l-69.12 66.56v104.96l120.32-120.32z" fill="#F2BA11" p-id="5758"></path><path d="M939.52 94.72C911.36 66.56 872.96 51.2 834.56 51.2H197.12C115.2 51.2 51.2 117.76 51.2 199.68v302.08c5.12 15.36 20.48 25.6 35.84 25.6 15.36 0 30.72-10.24 35.84-25.6V199.68c0-40.96 33.28-74.24 74.24-74.24h637.44c40.96 0 74.24 33.28 74.24 74.24v637.44c0 40.96-33.28 74.24-74.24 74.24H197.12c-40.96 0-74.24-33.28-74.24-74.24v-61.44c-2.56-17.92-17.92-30.72-35.84-30.72s-33.28 12.8-35.84 30.72v61.44c0 81.92 66.56 148.48 148.48 148.48h637.44c38.4 0 76.8-15.36 104.96-43.52 28.16-28.16 43.52-64 43.52-104.96V199.68c-2.56-38.4-17.92-76.8-46.08-104.96z" p-id="5759" fill="#F2BA11"></path><path d="M243.2 542.72l138.24 138.24 51.2-51.2-156.16-156.16c-7.68-7.68-20.48-12.8-33.28-12.8s-25.6 5.12-35.84 15.36l-17.92 17.92 53.76 48.64zM381.44 683.52l17.92 17.92c17.92 17.92 51.2 17.92 69.12 0l192-192-25.6-23.04-28.16-28.16-171.52 171.52-53.76 53.76z" fill="#F2BA11" p-id="5760"></path></svg>