<svg t="1628489255310" class="icon" viewBox="0 0 1024 1024" version="1.1" xmlns="http://www.w3.org/2000/svg" p-id="8739" width="200" height="200"><path d="M509.4 958.2c-60.4 0-118.9-11.9-174.1-35.1-53.2-22.5-101.1-54.8-142.1-95.9-41-41-73.3-88.9-95.9-142.1C74 629.9 62.2 571.4 62.2 511S74 392.1 97.3 337c22.5-53.2 54.8-101.1 95.9-142.1 41-41 88.9-73.3 142.1-95.9C390.5 75.7 449 63.9 509.4 63.9S628.3 75.7 683.5 99c53.2 22.5 101.1 54.8 142.1 95.9 41 41 73.3 88.9 95.9 142.1 23.3 55.2 35.1 113.7 35.1 174.1 0 60.4-11.9 118.9-35.1 174.1-22.5 53.3-54.8 101.1-95.9 142.1-41 41-88.9 73.3-142.1 95.9-55.2 23.2-113.7 35-174.1 35z m0-827.9c-209.9 0-380.7 170.8-380.7 380.7s170.8 380.7 380.7 380.7S890.1 720.9 890.1 511 719.3 130.3 509.4 130.3z" fill="#4B6BC6" p-id="8740"></path><path d="M341.6 410.1m-55.9 0a55.9 55.9 0 1 0 111.8 0 55.9 55.9 0 1 0-111.8 0Z" fill="#4B6BC6" p-id="8741"></path><path d="M677.2 409m-55.9 0a55.9 55.9 0 1 0 111.8 0 55.9 55.9 0 1 0-111.8 0Z" fill="#4B6BC6" p-id="8742"></path><path d="M515.3 733.1c-88 0-153.8-69.7-156.6-72.8-11.3-12.1-10.6-31.1 1.6-42.4 12.1-11.3 31.1-10.6 42.3 1.5 0.9 0.9 51.4 53.7 112.7 53.7h2.3c34.6-0.8 67.4-19 97.7-54.2 10.8-12.6 29.8-14 42.3-3.2 12.6 10.8 14 29.8 3.2 42.3-42 48.8-89.9 74-142.4 75-1 0.1-2.1 0.1-3.1 0.1z" fill="#4B6BC6" p-id="8743"></path></svg>