<svg t="1628489390700" class="icon" viewBox="0 0 1024 1024" version="1.1" xmlns="http://www.w3.org/2000/svg" p-id="15897" width="200" height="200"><path d="M444.7 582.8c-29.9 0-59.8-11.4-82.6-34.2l-89.5-89.5c-14.8-14.8-14.8-38.9 0-53.7 14.8-14.8 38.9-14.8 53.7 0l89.5 89.5c15.9 15.9 41.8 15.9 57.8 0l236.2-236.2c14.8-14.8 38.9-14.8 53.7 0s14.8 38.9 0 53.7L527.4 548.7c-22.8 22.7-52.7 34.1-82.7 34.1z" fill="#4B6BC6" p-id="15898"></path><path d="M804.5 1007c-30.2 0-59.6-11.3-83-32.8L554.2 819.7c-23.6-21.8-60.5-21.7-84 0.1l-165.5 154c-35.8 33.4-86.2 42.3-131.5 23.2-44.7-18.8-73.3-60.5-74.5-108.8V141.1c0-76.3 62-138.3 138.3-138.3h552.3c76.3 0 138.3 62 138.3 138.3v747.1c-1.2 48.3-29.7 89.9-74.4 108.8-16 6.7-32.5 10-48.7 10z m-31.4-88.6c13.9 12.9 32.8 16.1 50.4 8.7 17.1-7.2 27.5-22.4 28-40.7V141.1c0-34.3-27.9-62.3-62.3-62.3H236.9c-34.4 0-62.3 27.9-62.3 62.3v745.2c0.5 18.3 10.9 33.5 28 40.6 17.6 7.4 36.4 4.1 50.3-8.8l165.5-154c25.5-23.7 58.7-36.8 93.6-36.9h0.2c34.8 0 67.9 13 93.5 36.6l167.4 154.6z" fill="#4B6BC6" p-id="15899"></path></svg>