<svg t="1628489413902" class="icon" viewBox="0 0 1024 1024" version="1.1" xmlns="http://www.w3.org/2000/svg" p-id="16359" width="200" height="200"><path d="M353.28 85.333333c16.384 0 29.738667 13.312 29.738667 29.781334V164.693333h257.962666V115.114667a29.781333 29.781333 0 1 1 59.562667 0V164.693333h128.981333A109.141333 109.141333 0 0 1 938.666667 273.92v555.648A109.141333 109.141333 0 0 1 829.525333 938.666667H194.474667A109.141333 109.141333 0 0 1 85.333333 829.525333V273.877333A109.141333 109.141333 0 0 1 194.474667 164.693333h128.981333V115.114667c0-16.469333 13.354667-29.781333 29.781333-29.781334zM194.432 224.256c-27.392 0-49.621333 22.186667-49.621333 49.621333v89.301334h734.293333V273.877333c0-27.434667-22.186667-49.621333-49.621333-49.621333H194.474667z m684.672 198.442667H144.853333v406.826666c0 27.392 22.229333 49.621333 49.621334 49.621334h635.050666c27.392 0 49.621333-22.186667 49.621334-49.621334V422.698667z m-165.674667 90.069333a29.781333 29.781333 0 0 1-3.84 41.941333l-238.08 198.442667a29.781333 29.781333 0 0 1-40.106666-1.792l-138.922667-138.922667a29.781333 29.781333 0 0 1 42.069333-42.112l119.722667 119.68 217.216-181.034666a29.781333 29.781333 0 0 1 41.941333 3.84z" p-id="16360" fill="#4B6BC6"></path></svg>