<svg t="1628489797075" class="icon" viewBox="0 0 1152 1024" version="1.1" xmlns="http://www.w3.org/2000/svg" p-id="18384" width="200" height="200"><path d="M990.72 89.6c42.24 0 70.4 28.16 70.4 70.4V652.8c0 42.24-28.16 70.4-70.4 70.4h-844.8c-42.24 0-70.4-28.16-70.4-70.4V160c0-42.24 28.16-70.4 70.4-70.4h844.8m0-70.4h-844.8C68.48 19.2 5.12 82.56 5.12 160V652.8c0 77.44 63.36 140.8 140.8 140.8h844.8c77.44 0 140.8-63.36 140.8-140.8V160c0-77.44-63.36-140.8-140.8-140.8z m-281.6 915.2v-70.4h-281.6v70.4H216.32v70.4h704V934.4H709.12zM216.32 441.6h140.8v211.2h-140.8v-211.2z m281.6-211.2h140.8v422.4h-140.8V230.4z m281.6 140.8h140.8v281.6h-140.8v-281.6z" p-id="18385" fill="#23B471"></path></svg>