<svg t="1628489853916" class="icon" viewBox="0 0 1024 1024" version="1.1" xmlns="http://www.w3.org/2000/svg" p-id="19853" width="200" height="200"><path d="M657.6 318.4c76.9 44.2 131.3 121.6 144 213 27.5 0.7 53 8.5 75.5 21.1-7.1-135.3-87-250.3-201.8-307.7 0 0.3 0.1 0.7 0.1 1 0 26.2-6.8 50.6-17.8 72.6zM512.4 865c-63.7 0-122.2-20.9-170.4-55.5-18.5 18.3-41.6 31.6-67.1 39.4 64.1 55 146.4 89.4 237.4 89.4s173.3-34.4 237.4-89.4c-25.5-7.9-48.6-21.1-67.1-39.4C634.7 844 576.1 865 512.4 865zM367.3 318.4c-11-21.9-17.8-46.4-17.8-72.6 0-0.3 0.1-0.7 0.1-1-114.8 57.4-194.7 172.4-201.8 307.7 22.5-12.7 48-20.4 75.5-21.1 12.7-91.4 67.1-168.8 144-213z" fill="#23B471" p-id="19854"></path><path d="M699.8 693.9c0-53.9 43.9-97.8 97.8-97.8 2 0 3.6 1 5.6 1.1 0.8-8.6 2.6-16.8 2.6-25.6 0-13.8-2.2-27-4.1-40.3-1.4 0-2.7-0.4-4.1-0.4-90 0-162.9 72.9-162.9 162.9 0 45.2 18.4 86 48.2 115.6 17.9-12.9 33.9-28 48.5-44.5-19.2-17.9-31.6-42.8-31.6-71zM877.1 552.5c0.3 6.5 1.9 12.6 1.9 19.2 0 21.3-2.8 41.9-6.3 62.2 13.4 16.7 22.6 37 22.6 60 0 51.1-39.9 92-90 96.2-16.2 21.7-34.9 41.2-55.5 58.8 15.2 4.7 31 7.9 47.7 7.9 90 0 162.9-72.9 162.9-162.9 0.1-61-33.7-113.5-83.3-141.4z" fill="#23B471" p-id="19855"></path><path d="M805.4 790.1c-2.7 0.2-5 1.6-7.8 1.6-25.7 0-48.8-10.4-66.2-26.7-14.6 16.5-30.6 31.6-48.5 44.5 18.5 18.3 41.6 31.6 67.1 39.4 20.5-17.7 39.1-37.1 55.4-58.8zM805.7 571.7c0 8.8-1.8 17-2.6 25.6 28.5 1.7 52.9 15.6 69.6 36.6 3.5-20.3 6.3-40.9 6.3-62.2 0-6.6-1.6-12.7-1.9-19.2-22.5-12.7-48-20.4-75.5-21.1 1.9 13.3 4.1 26.5 4.1 40.3zM219.5 790.1c-50.1-4.2-90-45-90-96.2 0-23 9.2-43.3 22.6-60-3.5-20.3-6.3-40.9-6.3-62.2 0-6.6 1.6-12.7 1.9-19.2-49.6 27.9-83.4 80.4-83.4 141.4 0 90 72.9 162.9 162.9 162.9 16.7 0 32.5-3.2 47.7-7.9-20.5-17.7-39.1-37.1-55.4-58.8zM390.2 693.9c0-97.8-72.9-162.9-162.9-162.9-1.4 0-2.7 0.4-4.1 0.4-1.9 13.3-4.1 26.5-4.1 40.3 0 8.8 1.8 17 2.6 25.6 1.9-0.1 3.6-1.1 5.6-1.1 57.6 0 97.8 40.2 97.8 97.8 0 28.2-12.4 53.2-31.5 71 14.6 16.5 30.6 31.6 48.5 44.5 29.7-29.6 48.1-70.4 48.1-115.6z" fill="#23B471" p-id="19856"></path><path d="M293.6 764.9c-17.5 16.3-40.5 26.7-66.2 26.7-2.8 0-5.1-1.4-7.8-1.6 16.2 21.7 34.9 41.2 55.5 58.8 25.5-7.9 48.6-21.1 67.1-39.4-18.1-12.9-34-28-48.6-44.5zM152.1 633.8c16.8-21 41.2-34.9 69.6-36.6-0.8-8.6-2.6-16.8-2.6-25.6 0-13.8 2.2-27 4.1-40.3-27.5 0.7-53 8.5-75.5 21.1-0.3 6.5-1.9 12.6-1.9 19.2 0 21.4 2.8 41.9 6.3 62.2zM512.4 148.1c44.1 0 80.1 29.9 92.2 70.2 24.7 6.5 48.2 15.4 70.7 26.6C674.7 155.4 602.1 83 512.5 83s-162.3 72.4-162.8 161.9c22.4-11.2 45.9-20.2 70.7-26.6 12-40.3 47.9-70.2 92-70.2zM512.4 408.7c63.8 0 118.4-37 145.2-90.4-19.1-11-39.3-19.6-60.8-26.1-16.7 30.1-47.6 51.3-84.4 51.3-36.8 0-67.7-21.2-84.4-51.3-21.4 6.5-41.7 15.2-60.8 26.1 26.8 53.5 81.5 90.4 145.2 90.4z" fill="#23B471" p-id="19857"></path><path d="M610.2 245.8c0 17.1-5.6 32.4-13.4 46.4 21.4 6.5 41.7 15.2 60.8 26.1 11-21.9 17.8-46.4 17.8-72.6 0-0.3-0.1-0.7-0.1-1-22.4-11.2-45.9-20.2-70.7-26.6 2.7 9 5.6 17.9 5.6 27.7zM367.3 318.4c19.1-11 39.3-19.6 60.8-26.1-7.8-14-13.4-29.3-13.4-46.4 0-9.8 2.9-18.7 5.6-27.6-24.7 6.5-48.2 15.4-70.7 26.6 0 0.3-0.1 0.7-0.1 1 0 26.1 6.8 50.5 17.8 72.5z" fill="#23B471" p-id="19858"></path></svg>