<svg t="1628489998468" class="icon" viewBox="0 0 1024 1024" version="1.1" xmlns="http://www.w3.org/2000/svg" p-id="22815" width="200" height="200"><path d="M512 714.24L323.223704 605.392593V387.602963L512 278.660741l188.776296 108.847407v217.78963L512 714.24zM365.89037 580.740741L512 665.031111l146.10963-84.29037V412.254815L512 327.964444l-146.10963 84.290371v168.485926z" p-id="22816" fill="#23B471"></path><path d="M490.666667 496.45037h42.666666v193.137778h-42.666666z" p-id="22817" fill="#23B471"></path><path d="M501.390222 478.006044l167.480889-96.586903 21.315319 36.962607L522.707437 514.967704z" p-id="22818" fill="#23B471"></path><path d="M333.938726 418.379852l21.316267-36.962608 167.47994 96.585956-21.316266 36.962607zM566.992593 837.783704l-21.333334-36.977778 246.518519-142.127407V368.64h42.666666v302.364444c0 7.585185-4.077037 14.696296-10.714074 18.488889L566.992593 837.783704zM456.817778 837.688889l-256.948148-148.195556c-6.637037-3.792593-10.714074-10.903704-10.714074-18.488889V368.64h42.666666v289.943704l246.328889 142.032592-21.333333 37.072593zM260.551111 318.957037l-21.333333-36.977778L501.380741 130.844444c6.637037-3.792593 14.696296-3.792593 21.333333 0l262.068148 151.134815-21.333333 36.977778L512 173.985185 260.551111 318.957037z" p-id="22819" fill="#23B471"></path><path d="M813.511111 390.068148c-36.882963 0-66.844444-29.961481-66.844444-66.844444s29.961481-66.844444 66.844444-66.844445 66.844444 29.961481 66.844445 66.844445-29.961481 66.844444-66.844445 66.844444z m0-90.927407c-13.368889 0-24.177778 10.808889-24.177778 24.082963s10.808889 24.082963 24.177778 24.082963 24.177778-10.808889 24.177778-24.082963-10.808889-24.082963-24.177778-24.082963z" p-id="22820" fill="#23B471"></path><path d="M210.488889 390.068148c-36.882963 0-66.844444-29.961481-66.844445-66.844444s29.961481-66.844444 66.844445-66.844445 66.844444 29.961481 66.844444 66.844445-29.961481 66.844444-66.844444 66.844444z m0-90.927407c-13.368889 0-24.177778 10.808889-24.177778 24.082963s10.808889 24.082963 24.177778 24.082963 24.177778-10.808889 24.177778-24.082963-10.808889-24.082963-24.177778-24.082963z" p-id="22821" fill="#23B471"></path><path d="M511.905185 896c-36.882963 0-66.844444-29.961481-66.844444-66.844444S475.022222 762.311111 511.905185 762.311111s66.844444 29.961481 66.844445 66.844445-29.961481 66.844444-66.844445 66.844444z m0-90.927407c-13.368889 0-24.177778 10.808889-24.177778 24.082963s10.808889 24.082963 24.177778 24.082963 24.177778-10.808889 24.177778-24.082963-10.808889-24.082963-24.177778-24.082963z" p-id="22822" fill="#23B471"></path></svg>