<svg t="1629257282081" class="icon" viewBox="0 0 1024 1024" version="1.1" xmlns="http://www.w3.org/2000/svg" p-id="22738" width="200" height="200"><path d="M1015.808 507.904c0-14.848-8.704-28.16-21.504-34.304l-177.664-85.504 178.176-88.576c13.312-6.656 21.504-19.968 21.504-34.816s-8.704-28.16-21.504-34.304l-465.92-224.256c-10.752-5.12-22.528-5.12-33.28 0L29.696 230.4c-13.312 6.144-21.504 19.456-22.016 34.304 0 14.848 8.192 28.16 21.504 34.816l178.176 88.576L29.696 473.6c-13.312 6.144-21.504 19.456-22.016 34.304 0 14.848 8.192 28.16 21.504 34.816l178.176 88.576L29.696 716.8c-13.312 6.144-21.504 19.456-22.016 34.304 0 14.848 8.192 28.16 21.504 34.816l465.92 231.936c5.632 2.56 11.264 4.096 16.896 4.096 5.632 0 11.776-1.536 16.896-4.096l465.408-231.936c13.312-6.656 21.504-19.968 21.504-34.816s-8.704-28.16-21.504-34.304l-177.664-85.504 178.176-88.576c12.8-6.656 20.992-19.968 20.992-34.816zM512 83.456l377.856 181.76L512 453.632 133.632 265.728 512 83.456z m377.856 668.672L512 940.032l-378.368-188.416 160.768-77.312 200.192 99.84c5.632 2.56 11.264 4.096 16.896 4.096 5.632 0 11.776-1.536 16.896-4.096l200.192-99.84 161.28 77.824zM512 696.832L133.632 508.928l160.768-77.312 200.192 99.84c5.632 2.56 11.264 4.096 16.896 4.096 5.632 0 11.776-1.536 16.896-4.096l200.192-99.84 160.768 77.312-377.344 187.904z" p-id="22739" fill="#F2BA11"></path></svg>