<svg t="1629257332173" class="icon" viewBox="0 0 1024 1024" version="1.1" xmlns="http://www.w3.org/2000/svg" p-id="23809" width="200" height="200"><path d="M755.326733 141.940594h-70.970297v-15.207921a50.693069 50.693069 0 0 0-50.69307-50.693069h-243.326732a50.693069 50.693069 0 0 0-50.69307 50.693069V141.940594h-70.970297A126.935446 126.935446 0 0 0 141.940594 268.673267v557.623763A126.935446 126.935446 0 0 0 268.673267 953.029703h486.653466A126.935446 126.935446 0 0 0 882.059406 826.29703v-557.623763A126.935446 126.935446 0 0 0 755.326733 141.940594z m-364.990099-15.207921h243.326732v81.108911h-243.326732z m441.029703 699.564357a76.039604 76.039604 0 0 1-76.039604 76.039604h-486.653466a76.039604 76.039604 0 0 1-76.039604-76.039604v-557.623763a76.039604 76.039604 0 0 1 76.039604-76.039604h70.970297v15.207921a50.693069 50.693069 0 0 0 50.69307 50.693069h243.326732a50.693069 50.693069 0 0 0 50.69307-50.693069V192.633663h70.970297a76.039604 76.039604 0 0 1 76.039604 76.039604z" fill="#F2BA11" p-id="23810"></path><path d="M587.025743 547.485149H537.346535v-73.504951h100.270891a25.346535 25.346535 0 0 0 0-50.693069H537.346535V375.128713a25.346535 25.346535 0 0 0-50.69307 0v48.158416h-49.679208a87.496238 87.496238 0 0 0 0 174.891089H486.653465v73.50495h-100.270891a25.346535 25.346535 0 0 0 0 50.69307H486.653465V770.534653a25.346535 25.346535 0 0 0 50.69307 0v-48.158415h49.679208a87.496238 87.496238 0 0 0 0-174.891089z m-150.051486 0a36.803168 36.803168 0 0 1 0-73.504951H486.653465V547.485149z m150.051486 124.198019H537.346535V598.178218h49.679208a36.803168 36.803168 0 0 1 0 73.50495z" fill="#F2BA11" p-id="23811"></path></svg>