<svg t="1629253835305" class="icon" viewBox="0 0 1024 1024" version="1.1" xmlns="http://www.w3.org/2000/svg" p-id="18630" width="200" height="200"><path d="M57.289 98.616v695.269h910.998V98.616H57.289z m0-47.931h910.998c12.801 0 24.977 5.009 33.882 14.053 9.042 8.974 14.052 21.148 14.052 33.878v695.269c0 26.508-21.427 47.931-47.933 47.931H57.289c-26.437 0-47.934-21.423-47.934-47.931V98.616c0-12.73 5.08-24.904 14.124-33.878 8.903-9.044 21.078-14.053 33.81-14.053z m191.799 935.001c-13.219 0-24-10.749-24-24 0-13.22 10.781-23.932 24-23.932h539.225c13.218 0 23.932 10.712 23.932 23.932 0 13.252-10.714 24-23.932 24H249.088z" p-id="18631" fill="#70B603"></path><path d="M713.665 419.815c0 11.826-12.173 21.392-27.271 21.392-14.955 0-27.058-9.565-27.058-21.392V147.628c0-11.756 12.102-21.357 27.058-21.357 15.099 0 27.271 9.601 27.271 21.357v272.187zM550.597 507.887c0 11.514-11.757 20.837-26.296 20.837-14.471 0-26.298-9.324-26.298-20.837V242.764c0-11.548 11.829-20.905 26.298-20.905 14.537 0 26.296 9.358 26.296 20.905v265.123zM391.635 583.614c0 16.487-11.272 29.879-25.325 29.879-13.913 0-25.32-13.392-25.32-29.879V203.945c0-16.524 11.407-29.916 25.32-29.916 14.053 0 25.325 13.392 25.325 29.916v379.669zM225.295 589.492c0 11.34-9.599 20.558-21.427 20.558-11.757 0-21.286-9.218-21.286-20.558V328.3c0-11.376 9.529-20.559 21.286-20.559 11.828 0 21.427 9.182 21.427 20.559v261.192z" p-id="18632" fill="#70B603"></path><path d="M453.971 947.458c-11.709 0-21.206-9.494-21.206-21.207 0-72.435 21.271-104.339 63.065-171.314-10.726-15.352-18.863-31.903-24.166-49.382-15.535-50.639-11.836-101.743-3.882-130.07 11.898-42.598 32.056-75.639 61.646-100.886 27.309-23.273 62.879-39.947 108.743-50.92 77.737-18.584 181.427-20.034 319.331-20.034h36.618c6.103 0 11.958 2.65 15.967 7.304l0.123 0.094 0.123 0.276c4.069 4.778 5.731 11.005 4.685 17.2-18.431 106.648-47.284 194.371-85.626 260.642-33.043 57.053-73.546 99.13-120.333 124.958-36.927 20.467-77.492 30.791-120.397 30.791-7.955 0-15.967-0.308-23.734-1.017-36.063-3.111-65.285-12.577-83.469-20.005-8.319-3.419-16.646-7.551-24.598-12.328-9.925-5.946-13.376-18.926-7.396-28.974 3.885-6.411 10.789-10.355 18.246-10.355 3.822 0 7.521 1.049 10.789 2.958 6.228 3.699 12.575 6.874 18.989 9.493 16.398 6.72 50.117 18.063 90.804 18.063 35.756 0 69.536-8.664 100.236-25.646 86.304-47.712 146.843-159.08 180.19-331.104h-9.181c-278.026 0-413.342 6.011-451.008 140.954-5.115 18.403-10.11 61.432 3.636 106.278a135.315 135.315 0 0 0 9.989 23.828c13.809-18.032 28.85-35.262 44.754-51.231 35.692-35.66 76.133-65.806 117.19-87.29 40.69-21.392 79.093-32.671 111.023-32.671 11.65 0 21.147 9.492 21.147 21.143 0 11.684-9.497 21.207-21.147 21.207-24.78 0-57.268 9.863-91.479 27.803-37.114 19.357-74.038 47.009-106.834 79.707-45.436 45.404-121.691 102.057-121.691 230.529-0.001 11.713-9.494 21.206-21.147 21.206z" p-id="18633" fill="#70B603"></path></svg>