<svg t="1630392526116" class="icon" viewBox="0 0 1024 1024" version="1.1" xmlns="http://www.w3.org/2000/svg" p-id="12776" width="200" height="200"><path d="M865 699.6c-27.8 89.8-175.6 158.3-353.7 158.3-176.7 0-323.5-67.4-353-156.1-3.1 10-4.7 20.3-4.7 30.7 0 104.4 160.5 189 358.5 189s358.5-84.6 358.5-189c-0.1-11.2-2-22.2-5.6-32.9z" p-id="12777" fill="#F2BA11"></path><path d="M865 568.6c-27.8 89.8-175.6 158.3-353.7 158.3-176.7 0-323.5-67.4-353-156.1-3.1 10-4.7 20.3-4.7 30.7 0 104.4 160.5 189 358.5 189s358.5-84.6 358.5-189c-0.1-11.2-2-22.2-5.6-32.9z" p-id="12778" fill="#F2BA11"></path><path d="M865 433.6c-27.8 89.8-175.6 158.3-353.7 158.3-176.7 0-323.5-67.4-353-156.1-3.1 10-4.7 20.3-4.7 30.7 0 104.4 160.5 189 358.5 189s358.5-84.6 358.5-189c-0.1-11.2-2-22.2-5.6-32.9z" p-id="12779" fill="#F2BA11"></path><path d="M153.5 319.9a358.5 189 0 1 0 717 0 358.5 189 0 1 0-717 0Z" p-id="12780" fill="#F2BA11"></path></svg>