<svg t="1630392988731" class="icon" viewBox="0 0 1024 1024" version="1.1" xmlns="http://www.w3.org/2000/svg" p-id="27929" width="200" height="200"><path d="M396 954c-16.1 0-31.6-8.8-39.4-24.1l-330.8-645c-7.9-15.5-6.1-34.1 4.7-47.7 3.5-4.5 89.1-109.2 276.3-96.1 59.8 4.2 106.2-23.8 146.8-48.5 38.2-23.2 77.6-47.2 121-33.6 40.2 12.6 61.4 51.5 73.9 79.7 45.9 103.7 81.9 209.2 34.7 277.7-41.8 60.7-126.4 63.5-186.3 60.3-64.2-3.3-117.9 13.6-155.1 49-32.5 31-44.2 68-44.1 85.2 0 2.9-0.2 5.7-0.8 8.5l138.6 270.2c11.2 21.8 2.6 48.5-19.2 59.6-6.5 3.2-13.5 4.8-20.3 4.8zM120 274.4l121 235.9c10.3-16.6 23.3-33.2 39.7-48.8 38.6-36.8 108.2-79.3 220.9-73.4 58.2 3 96.8-4.8 108.7-22.1 17-24.6 2.6-89.1-42.7-191.5-11.9-26.8-19.7-31.1-19.8-31.2h-0.1c-7 0-31.7 15-48 24.9-46.8 28.4-110.7 67.4-199.1 61.2-94.1-6.6-152.5 24.2-180.6 45z" fill="#6300BF" p-id="27930"></path><path d="M766.5 759.2C684 759.2 617 692.1 617 609.7s67.1-149.5 149.5-149.5S916 527.3 916 609.7c-0.1 82.4-67.1 149.5-149.5 149.5z m0-210.4c-33.6 0-60.9 27.3-60.9 60.9 0 33.6 27.3 60.9 60.9 60.9 33.6 0 60.9-27.3 60.9-60.9-0.1-33.6-27.4-60.9-60.9-60.9z" fill="#6300BF" p-id="27931"></path><path d="M956.7 942.5c-24.5 0-44.3-19.8-44.3-44.3 0-37.3-30.3-67.6-67.6-67.6H688.1c-37.3 0-67.6 30.3-67.6 67.6 0 24.5-19.8 44.3-44.3 44.3-24.5 0-44.3-19.8-44.3-44.3 0-86.1 70.1-156.2 156.2-156.2h156.7c86.1 0 156.2 70.1 156.2 156.2 0 24.5-19.9 44.3-44.3 44.3z" fill="#6300BF" p-id="27932"></path></svg>