<svg t="1629255331626" class="icon" viewBox="0 0 1024 1024" version="1.1" xmlns="http://www.w3.org/2000/svg" p-id="20275" width="200" height="200"><path d="M902 339.9c-16.8-17.7-39.1-27.4-62.7-27.4h-69.1c10.5-15 15.8-33.8 15.1-53.8-0.8-22.3-9-43.9-23.3-61l-0.2-0.2-76.2-76.2c-15.3-15.3-36.7-23.7-60.4-23.7-23.5 0-46.4 8.3-64.4 23.3l-0.3 0.2-72.5 78c-1.9-1.3-3.8-2.2-5.5-3.1-2.7-1.3-5-2.5-7.2-4.7l-0.5-0.5-47.5-29.7c-13.3-7.6-27.5-11.4-42.3-11.4-29.8 0-59.1 16.3-76.6 42.5l-0.1 0.2-68.5 119.9h-55c-23.6 0-45.9 9.7-62.7 27.4-15.9 16.7-25 38.7-25 60.3v438.3c0 50 37.7 87.7 87.7 87.7h654.5c50 0 87.7-37.7 87.7-87.7V400.2c0-21.6-9.1-43.6-25-60.3z m-434.1-27.4l141.8-141.8c4.4-4.4 9.9-9.9 13.3-9.9 5.4 0 9.2 0 13.3 4.1l76 76c4.5 4.5 7 10.3 7 16.3s-2.5 11.7-7 16.2l-0.2 0.2-33.4 39H467.9z m-102.7-84.7l0.1-0.2c3.1-6.1 11.4-10.7 19.4-10.7 2.7 0 5.3 0.5 7.4 1.6l45.9 28.7 1 1-69.7 64.4h-57.1l53-84.8zM161.5 400.2c0-14.4 8.9-23.3 23.3-23.3h654.5c14.4 0 23.3 8.9 23.3 23.3v46.7H704.8c-50 0-87.7 37.7-87.7 87.7v163.6c0 50 37.7 87.7 87.7 87.7h157.7v46.7c0 13.3-4 29.1-23.3 29.1H184.7c-14.4 0-23.3-8.9-23.3-23.3V400.2z m520.1 298.1V540.5c0-14.4 8.9-23.3 23.3-23.3h157.7v204.4H704.8c-14.3 0-23.2-9-23.2-23.3z" fill="#23B471" p-id="20276"></path><path d="M786.7 575.5c-25.8 0-46.8 21-46.8 46.8 0 25.8 21 46.8 46.8 46.8 25.8 0 46.8-21 46.8-46.8 0-25.8-21-46.8-46.8-46.8zM219.8 821.1c9.2 0 17.6-8.4 17.6-17.6V569.7c0-9.2-8.4-17.6-17.6-17.6s-17.6 8.4-17.6 17.6v233.8c0 9.2 8.4 17.6 17.6 17.6zM219.8 517.2c9.2 0 17.6-8.4 17.6-17.6v-46.8c0-9.2-8.4-17.6-17.6-17.6s-17.6 8.4-17.6 17.6v46.8c0 9.2 8.4 17.6 17.6 17.6z" fill="#23B471" p-id="20277"></path></svg>