<svg t="1629255457003" class="icon" viewBox="0 0 1024 1024" version="1.1" xmlns="http://www.w3.org/2000/svg" p-id="21814" width="200" height="200"><path d="M276.48 826.026667c20.48 0 34.133333 13.653333 34.133333 34.133333s-13.653333 34.133333-34.133333 34.133333h-23.893333c-58.026667 0-102.4-44.373333-102.4-102.4 0-6.826667 0-13.653333 3.413333-20.48l37.546667-194.56c30.72-153.6 163.84-262.826667 320.853333-262.826666s290.133333 109.226667 320.853333 262.826666l37.546667 194.56c10.24 54.613333-23.893333 109.226667-81.92 119.466667-6.826667 0-13.653333 3.413333-20.48 3.413333H413.013333c-20.48 0-34.133333-13.653333-34.133333-34.133333s13.653333-34.133333 34.133333-34.133333h365.226667c17.066667-3.413333 30.72-20.48 27.306667-40.96l-37.546667-194.56c-23.893333-119.466667-129.706667-208.213333-252.586667-208.213334-122.88 0-228.693333 85.333333-252.586666 208.213334L221.866667 785.066667v6.826666c0 20.48 13.653333 34.133333 34.133333 34.133334h20.48z" fill="#23B471" p-id="21815"></path><path d="M610.986667 552.96c20.48 0 34.133333-13.653333 34.133333-34.133333s-13.653333-34.133333-34.133333-34.133334H443.733333c-37.546667 0-68.266667 30.72-68.266666 68.266667v34.133333c0 37.546667 30.72 68.266667 68.266666 68.266667h136.533334v34.133333h-170.666667c-20.48 0-34.133333 13.653333-34.133333 34.133334s13.653333 34.133333 34.133333 34.133333h170.666667c37.546667 0 68.266667-30.72 68.266666-68.266667v-34.133333c0-37.546667-30.72-68.266667-68.266666-68.266667h-136.533334v-34.133333h167.253334z" fill="#23B471" p-id="21816"></path><path d="M546.133333 757.76c0 20.48-13.653333 34.133333-34.133333 34.133333s-34.133333-13.653333-34.133333-34.133333v-34.133333c0-20.48 13.653333-34.133333 34.133333-34.133334s34.133333 13.653333 34.133333 34.133334v34.133333zM546.133333 518.826667c0 20.48-13.653333 34.133333-34.133333 34.133333s-34.133333-13.653333-34.133333-34.133333v-34.133334c0-20.48 13.653333-34.133333 34.133333-34.133333s34.133333 13.653333 34.133333 34.133333v34.133334z" fill="#23B471" p-id="21817"></path><path d="M624.64 235.52l-40.96 102.4c-6.826667 17.066667 0 37.546667 20.48 44.373333 17.066667 6.826667 37.546667 0 44.373333-20.48l68.266667-170.666666c10.24-27.306667-13.653333-54.613333-40.96-44.373334l-88.746667 30.72-54.613333-27.306666c-10.24-3.413333-20.48-3.413333-30.72 0l-54.613333 27.306666-88.746667-30.72c-34.133333-10.24-58.026667 17.066667-47.786667 44.373334l68.266667 170.666666c6.826667 17.066667 27.306667 27.306667 44.373333 20.48s27.306667-27.306667 20.48-44.373333l-40.96-102.4 34.133334 10.24c10.24 3.413333 17.066667 3.413333 27.306666-3.413333l47.786667-23.893334 54.613333 27.306667c6.826667 3.413333 17.066667 3.413333 27.306667 3.413333l30.72-13.653333z" fill="#23B471" p-id="21818"></path></svg>