<svg t="1629255375586" class="icon" viewBox="0 0 1024 1024" version="1.1" xmlns="http://www.w3.org/2000/svg" p-id="20628" width="200" height="200"><path d="M512 64C264.58 64 64 264.58 64 512s200.58 448 448 448 448-200.58 448-448S759.42 64 512 64z m295.57 743.57c-38.4 38.4-83.1 68.54-132.88 89.59C623.18 918.95 568.44 930 512 930s-111.18-11.05-162.7-32.84c-49.77-21.05-94.48-51.2-132.88-89.59-38.4-38.4-68.54-83.1-89.59-132.88C105.05 623.18 94 568.44 94 512s11.05-111.18 32.84-162.7c21.05-49.77 51.2-94.48 89.59-132.88 38.4-38.4 83.1-68.54 132.88-89.59C400.82 105.05 455.56 94 512 94s111.18 11.05 162.7 32.84c49.77 21.05 94.48 51.2 132.88 89.59 38.4 38.4 68.54 83.1 89.59 132.88C918.95 400.82 930 455.56 930 512s-11.05 111.18-32.84 162.7c-21.05 49.77-51.19 94.47-89.59 132.87z" fill="#23B471" p-id="20629"></path><path d="M512 192c-176.73 0-320 143.27-320 320s143.27 320 320 320 320-143.27 320-320-143.27-320-320-320zM325.38 689.18c0 8.3-6.7 15.04-14.99 15.1v0.01l-0.01-0.01c-0.04 0-0.07 0.01-0.1 0.01-8.34 0-15.11-6.76-15.11-15.11 0-0.41 0.03-0.81 0.06-1.21 1.79-79.79 45.21-148.05 106.89-175.85-7.54-4.98-14.45-10.9-20.55-17.63-17.37-19.2-26.94-43.84-26.94-69.38 0-55.79 45.1-102.02 102.67-105.24 2.05-0.11 4.22-0.16 6.36-0.17h0.04c8.4 0.01 15.2 6.77 15.2 15.11s-6.81 15.1-15.22 15.11c-1.63 0.03-3.2 0.04-4.7 0.13-41.62 2.33-74.21 35.3-74.21 75.07 0 36.92 28.85 68.89 67.1 74.36 7.52 1.05 13.15 7.62 13.04 15.27-0.1 7.66-5.91 14.07-13.51 14.92-70.11 7.38-124.15 75.66-126.03 158.96-0.01 0.18 0.01 0.37 0.01 0.55z m399.01 10.39a15.195 15.195 0 0 1-10.85 4.59H403.5l-8.9-8.98 0.06-6.36c1.51-80.22 44.71-148.87 106.13-176.7-7.56-5.02-14.5-10.99-20.61-17.8-17.19-19.17-26.65-43.76-26.65-69.24 0-55.73 44.71-101.92 101.78-105.14 30.43-1.72 60.39 9.35 82.23 30.36 21.29 20.48 32.74 47.7 32.23 76.62-0.44 25.1-10.11 49.27-27.22 68.04-5.96 6.54-12.71 12.3-20.04 17.16 61.42 27.82 104.6 96.42 106.14 176.56l0.19 6.26-4.45 4.63z" fill="#23B471" p-id="20630"></path></svg>