<svg t="1629258029469" class="icon" viewBox="0 0 1024 1024" version="1.1" xmlns="http://www.w3.org/2000/svg" p-id="31439" width="200" height="200"><path d="M832 64H192L0 385.28A126.72 126.72 0 0 0 126.72 512h2.56A126.72 126.72 0 0 0 256 385.28 126.72 126.72 0 0 0 382.72 512h2.56A126.72 126.72 0 0 0 512 385.28 126.72 126.72 0 0 0 638.72 512h2.56A126.72 126.72 0 0 0 768 385.28 126.72 126.72 0 0 0 894.72 512h2.56A126.72 126.72 0 0 0 1024 385.28L832 64zM128 576h320v384H128zM768 576h128v384h-128zM512 640h64v128H512z" fill="#4B6BC6" p-id="31440"></path></svg>