<svg t="1629258138993" class="icon" viewBox="0 0 1024 1024" version="1.1" xmlns="http://www.w3.org/2000/svg" p-id="32643" width="200" height="200"><path d="M1021.404 877.444c-4.502-21.626-25.688-35.506-47.312-31.006-21.63 4.504-35.512 25.686-31.008 47.314 2.594 12.456-0.494 25.226-8.472 35.036-4.622 5.68-14.922 15.212-31.998 15.212H722c-22.092 0-40 17.908-40 40s17.908 40 40 40h180.614c36.658 0 70.942-16.306 94.064-44.738 23.236-28.574 32.25-65.684 24.726-101.818zM552.612 545.538c131.414 12.104 250.954 82.538 325.406 193.576 12.3 18.348 37.152 23.252 55.498 10.948 18.35-12.304 23.25-37.152 10.948-55.5-65.636-97.892-160.95-169.06-269.624-204.824C741.07 440.08 784 360.96 784 272 784 122.018 661.98 0 512 0S240 122.018 240 272c0 89.018 42.984 168.184 109.286 217.834-60.742 19.996-117.742 51.094-167.626 92.124-91.464 75.234-155.058 180.174-179.064 295.486-7.524 36.134 1.49 73.244 24.726 101.818C50.442 1007.694 84.728 1024 121.386 1024H296c22.092 0 40-17.908 40-40s-17.908-40-40-40H121.382c-17.076 0-27.376-9.53-31.998-15.212-7.978-9.812-11.066-22.58-8.472-35.038 39.168-188.136 197.96-328.404 386.374-347.77l-76.362 347.418a40.006 40.006 0 0 0 10.784 36.87l80.004 80.014a40.002 40.002 0 0 0 56.574 0l79.996-80.014a40 40 0 0 0 10.782-36.868l-76.452-347.862zM320 272c0-105.87 86.13-192 192-192s192 86.13 192 192c0 102.674-81.01 186.778-182.47 191.764a521.144 521.144 0 0 0-9.53-0.096c-3.122 0-6.24 0.046-9.358 0.102C401.102 458.872 320 374.732 320 272z m189.998 653.426l-36.234-36.24 36.234-164.85 36.23 164.852-36.23 36.238z" p-id="32644" fill="#4B6BC6"></path></svg>